<svg width="50" height="50" viewBox="0 0 50 50" fill="none" xmlns="http://www.w3.org/2000/svg">
<path d="M40.2623 12.0371C41.6667 14.1389 41.6667 17.0649 41.6667 22.9168C41.6667 28.7688 41.6667 31.6947 40.2623 33.7966C39.6543 34.7065 38.873 35.4878 37.9631 36.0957C36.127 37.3226 33.6619 37.4777 29.1667 37.4973V37.5002L26.8634 42.1067C26.0957 43.6422 23.9044 43.6422 23.1367 42.1067L20.8334 37.5002V37.4973C16.3382 37.4777 13.8731 37.3226 12.037 36.0957C11.127 35.4878 10.3458 34.7065 9.73779 33.7966C8.33337 31.6947 8.33337 28.7688 8.33337 22.9168C8.33337 17.0649 8.33337 14.1389 9.73779 12.0371C10.3458 11.1272 11.127 10.3459 12.037 9.73792C14.1388 8.3335 17.0648 8.3335 22.9167 8.3335H27.0834C32.9353 8.3335 35.8613 8.3335 37.9631 9.73792C38.873 10.3459 39.6543 11.1272 40.2623 12.0371Z" fill="#FFE7D8" stroke="#F8844D" stroke-width="1.2" stroke-linecap="round" stroke-linejoin="round"/>
<path d="M18.75 18.75L31.25 18.75" stroke="#F8844D" stroke-width="1.2" stroke-linecap="round" stroke-linejoin="round"/>
<path d="M18.75 27.0835H25" stroke="#F8844D" stroke-width="1.2" stroke-linecap="round" stroke-linejoin="round"/>
</svg>
