<svg width="50" height="50" viewBox="0 0 50 50" fill="none" xmlns="http://www.w3.org/2000/svg">
<path d="M25 45.8333C22.118 45.8333 19.4097 45.2861 16.875 44.1917C14.3402 43.0972 12.1354 41.6132 10.2604 39.7396C8.38538 37.866 6.90135 35.6611 5.8083 33.125C4.71524 30.5889 4.16802 27.8805 4.16663 25C4.16524 22.1194 4.71246 19.4111 5.8083 16.875C6.90413 14.3389 8.38816 12.134 10.2604 10.2604C12.1326 8.3868 14.3375 6.90277 16.875 5.80832C19.4125 4.71388 22.1208 4.16666 25 4.16666C27.8791 4.16666 30.5875 4.71388 33.125 5.80832C35.6625 6.90277 37.8673 8.3868 39.7395 10.2604C41.6118 12.134 43.0965 14.3389 44.1937 16.875C45.2909 19.4111 45.8375 22.1194 45.8333 25C45.8291 27.8805 45.2819 30.5889 44.1916 33.125C43.1013 35.6611 41.6173 37.866 39.7395 39.7396C37.8618 41.6132 35.6569 43.0979 33.125 44.1937C30.593 45.2896 27.8847 45.8361 25 45.8333ZM25 41.6667C29.6527 41.6667 33.5937 40.0521 36.8229 36.8229C40.052 33.5937 41.6666 29.6528 41.6666 25C41.6666 20.3472 40.052 16.4062 36.8229 13.1771C33.5937 9.94791 29.6527 8.33332 25 8.33332C20.3472 8.33332 16.4062 9.94791 13.177 13.1771C9.94788 16.4062 8.33329 20.3472 8.33329 25C8.33329 29.6528 9.94788 33.5937 13.177 36.8229C16.4062 40.0521 20.3472 41.6667 25 41.6667ZM20.8333 33.3333H29.1666C29.7569 33.3333 30.252 33.1333 30.652 32.7333C31.052 32.3333 31.2513 31.8389 31.25 31.25V29.1667C31.25 28.5764 31.05 28.0819 30.65 27.6833C30.25 27.2847 29.7555 27.0847 29.1666 27.0833C28.5777 27.0819 28.0833 27.2819 27.6833 27.6833C27.2833 28.0847 27.0833 28.5792 27.0833 29.1667H22.9166V20.8333H27.0833C27.0833 21.4236 27.2833 21.9187 27.6833 22.3187C28.0833 22.7187 28.5777 22.918 29.1666 22.9167C29.7555 22.9153 30.2507 22.7153 30.652 22.3167C31.0534 21.918 31.2527 21.4236 31.25 20.8333V18.75C31.25 18.1597 31.05 17.6653 30.65 17.2667C30.25 16.868 29.7555 16.668 29.1666 16.6667H20.8333C20.243 16.6667 19.7486 16.8667 19.35 17.2667C18.9514 17.6667 18.7514 18.1611 18.75 18.75V31.25C18.75 31.8403 18.95 32.3354 19.35 32.7354C19.75 33.1354 20.2444 33.3347 20.8333 33.3333Z" fill="#030100"/>
</svg>
