<svg width="50" height="50" viewBox="0 0 50 50" fill="none" xmlns="http://www.w3.org/2000/svg">
<path d="M27.0833 14.5833V6.25H14.4166C12.531 6.25 11.5882 6.25 11.0024 6.83579C10.4166 7.42157 10.4166 8.36438 10.4166 10.25V39.75C10.4166 41.6356 10.4166 42.5784 11.0024 43.1642C11.5882 43.75 12.531 43.75 14.4166 43.75H35.5833C37.4689 43.75 38.4117 43.75 38.9975 43.1642C39.5833 42.5784 39.5833 41.6356 39.5833 39.75V18.75H31.25C29.2858 18.75 28.3037 18.75 27.6935 18.1398C27.0833 17.5296 27.0833 16.5475 27.0833 14.5833Z" fill="#7E869E" fill-opacity="0.25"/>
<path d="M27.4407 6.25H18.75C14.8216 6.25 12.8574 6.25 11.637 7.47039C10.4166 8.69078 10.4166 10.655 10.4166 14.5833V35.4167C10.4166 39.345 10.4166 41.3092 11.637 42.5296C12.8574 43.75 14.8216 43.75 18.75 43.75H31.25C35.1783 43.75 37.1425 43.75 38.3629 42.5296C39.5833 41.3092 39.5833 39.345 39.5833 35.4167V18.3926C39.5833 17.541 39.5833 17.1152 39.4247 16.7324C39.2661 16.3495 38.9651 16.0484 38.3629 15.4463L30.387 7.47039C29.7849 6.86824 29.4838 6.56717 29.1009 6.40858C28.7181 6.25 28.2923 6.25 27.4407 6.25Z" stroke="#222222" stroke-width="1.2"/>
<path d="M27.0834 6.25V14.5833C27.0834 16.5475 27.0834 17.5296 27.6936 18.1398C28.3038 18.75 29.2859 18.75 31.25 18.75H39.5834" stroke="#222222" stroke-width="1.2"/>
</svg>
