<svg width="39" height="40" viewBox="0 0 39 40" fill="none" xmlns="http://www.w3.org/2000/svg">
<path d="M36.4 18.2C36.4 18.6001 36.3835 19.0167 36.3501 19.4499C36.3167 19.85 36.2666 20.2501 36.2001 20.6499C35.8334 20.6499 35.4333 20.6499 35.0001 20.6499C34.6 20.6499 34.1834 20.6499 33.7499 20.6499C33.7833 19.9501 33.8001 19.4499 33.8001 19.1499C33.8001 18.8166 33.8001 18.5 33.8001 18.2C33.8001 17.4999 33.7499 16.8001 33.6501 16.1C33.55 15.3999 33.4 14.7001 33.2001 14L35.2499 11.9499C35.65 12.9167 35.9335 13.9333 36.1 15.0001C36.2999 16.0333 36.4 17.1001 36.4 18.2ZM0 18.2C0 15.6666 0.46668 13.2999 1.39999 11.1001C2.36657 8.90002 3.66665 6.98338 5.30009 5.34994C6.96665 3.68338 8.90009 2.3833 11.0999 1.44998C13.3334 0.483337 15.7 0 18.2001 0C20.1667 0 22.0499 0.3 23.8499 0.9C25.6499 1.46666 27.2999 2.30002 28.7999 3.39994L26.9999 5.30002C25.7335 4.46674 24.3501 3.81658 22.8501 3.35002C21.3835 2.8501 19.8333 2.60002 18.2001 2.60002C13.8666 2.60002 10.1834 4.11658 7.15001 7.14994C4.11665 10.1833 2.60009 13.8666 2.60009 18.2C2.60009 22.4667 4.06673 26.1167 7.00001 29.15C9.96665 32.15 13.5834 33.6999 17.8499 33.8C18.0834 33.8 18.3333 33.8 18.5999 33.8C18.8666 33.8 19.3 33.7832 19.9 33.7501C19.9 34.1833 19.9 34.6167 19.9 35.0499C19.9 35.45 19.9 35.8501 19.9 36.2499C19.6 36.2833 19.2835 36.3167 18.9501 36.35C18.6167 36.3834 18.2999 36.3999 17.9999 36.3999C15.5001 36.3666 13.1666 35.8832 11.0001 34.9501C8.83337 33.9834 6.91673 32.6667 5.24993 30.9999C3.61673 29.3334 2.33345 27.3999 1.39999 25.2001C0.46668 23 0 20.6667 0 18.2ZM30.8999 39.3999C30.8666 39.3999 30.7334 39.3001 30.5001 39.0999C30.0333 37.2999 29.1501 35.75 27.85 34.4499C26.5499 33.1167 24.9835 32.2333 23.1501 31.8001C23.1167 31.7667 23.0335 31.6333 22.9 31.4C22.9 31.3333 23.0001 31.2001 23.2 30.9999C25 30.5667 26.5499 29.7001 27.85 28.4C29.1501 27.0666 30.0333 25.5001 30.5001 23.7001C30.5335 23.6334 30.6667 23.5333 30.8999 23.4001C30.9667 23.4001 31.1001 23.4999 31.3 23.7001C31.7335 25.5001 32.6001 27.05 33.8999 28.3501C35.2334 29.6499 36.8001 30.5334 38.6001 30.9999C38.6666 30.9999 38.7667 31.1334 38.9001 31.4C38.9001 31.4334 38.8 31.5666 38.6001 31.8001C36.7667 32.2333 35.2 33.1167 33.8999 34.4499C32.6001 35.75 31.7335 37.2999 31.3 39.0999C31.3 39.1667 31.1666 39.2667 30.8999 39.3999ZM15.4 26.15L36.4 5.19994C36.1 4.86658 35.7835 4.55002 35.4501 4.25002C35.1501 3.95002 34.8501 3.65002 34.5501 3.35002L15.4499 22.4L9.95009 16.8999L8.05001 18.8L15.4 26.15Z" fill="#F8844D"/>
</svg>
