<svg width="45" height="45" viewBox="0 0 45 45" fill="none" xmlns="http://www.w3.org/2000/svg">
<path d="M29.25 17.1225V6.75H31.5V2.25H13.5V6.75H15.75V17.1225L2.56497 39.3525C2.36244 39.6941 2.25392 40.0832 2.25045 40.4804C2.24698 40.8775 2.34869 41.2684 2.54523 41.6135C2.74177 41.9586 3.02615 42.2455 3.36947 42.4451C3.7128 42.6447 4.10284 42.7499 4.49997 42.75H40.5C40.8971 42.7499 41.2872 42.6447 41.6305 42.4451C41.9738 42.2455 42.2582 41.9586 42.4547 41.6135C42.6513 41.2684 42.753 40.8775 42.7495 40.4804C42.746 40.0832 42.6375 39.6941 42.435 39.3525L29.25 17.1225ZM19.8 19.1025C20.0921 18.713 20.25 18.2393 20.25 17.7525V6.75H24.75V17.7525C24.7501 18.1563 24.8589 18.5527 25.065 18.9L29.88 27H15.12L19.8 19.1025Z" fill="#A910FF"/>
</svg>
