<svg width="54" height="54" viewBox="0 0 54 54" fill="none" xmlns="http://www.w3.org/2000/svg">
<g clip-path="url(#clip0_27_18)">
<path d="M24.7529 2.24866C26.6614 1.31506 28.8946 1.31506 30.8032 2.24866L37.0639 5.31192L43.657 7.57292C45.6671 8.26214 47.2461 9.84108 47.9353 11.8511L50.1963 18.4439L53.2597 24.7047C54.1932 26.6131 54.1932 28.8463 53.2597 30.7548L50.1963 37.017L47.9353 43.6081C47.2461 45.6187 45.6671 47.1962 43.657 47.8875L37.0639 50.1477L30.8032 53.2108C28.8946 54.1458 26.6614 54.1458 24.7529 53.2108L18.492 50.1477L11.899 47.8875C9.88897 47.1962 8.31001 45.6187 7.62077 43.6081L5.35972 37.017L2.2964 30.7548C1.36279 28.8463 1.36279 26.6131 2.2964 24.7047L5.35972 18.4439L7.62077 11.8511C8.31001 9.84108 9.88897 8.26214 11.899 7.57292L18.492 5.31192L24.7529 2.24866Z" fill="#FFE7D8"/>
<path d="M42.1999 23.9999C42.1999 24.4 42.1834 24.8167 42.15 25.2499C42.1167 25.6499 42.0665 26.05 42 26.4499C41.6333 26.4499 41.2332 26.4499 40.8 26.4499C40.3999 26.4499 39.9833 26.4499 39.5499 26.4499C39.5832 25.75 39.6 25.2499 39.6 24.9499C39.6 24.6165 39.6 24.2999 39.6 23.9999C39.6 23.2999 39.5499 22.6 39.45 21.8999C39.3499 21.1999 39.1999 20.5 39 19.7999L41.0499 17.7499C41.4499 18.7166 41.7334 19.7332 41.8999 20.8C42.0999 21.8332 42.1999 22.9 42.1999 23.9999ZM5.79993 23.9999C5.79993 21.4665 6.26661 19.0999 7.19992 16.9C8.1665 14.6999 9.46658 12.7833 11.1 11.1499C12.7666 9.4833 14.7 8.18322 16.8999 7.24991C19.1333 6.28326 21.4999 5.79993 24 5.79993C25.9666 5.79993 27.8499 6.09993 29.6499 6.69993C31.4499 7.26659 33.0999 8.09994 34.5999 9.19986L32.7999 11.0999C31.5334 10.2667 30.15 9.6165 28.65 9.14994C27.1834 8.65002 25.6332 8.39994 24 8.39994C19.6666 8.39994 15.9833 9.9165 12.9499 12.9499C9.91657 15.9832 8.40002 19.6665 8.40002 23.9999C8.40002 28.2667 9.86665 31.9166 12.7999 34.9499C15.7666 37.9499 19.3834 39.4999 23.6499 39.5999C23.8834 39.5999 24.1332 39.5999 24.3999 39.5999C24.6665 39.5999 25.0999 39.5831 25.6999 39.55C25.6999 39.9832 25.6999 40.4167 25.6999 40.8499C25.6999 41.2499 25.6999 41.65 25.6999 42.0499C25.3999 42.0832 25.0834 42.1166 24.75 42.1499C24.4167 42.1833 24.0999 42.1999 23.7999 42.1999C21.3 42.1665 18.9665 41.6831 16.8 40.75C14.6333 39.7833 12.7167 38.4667 11.0499 36.7999C9.41666 35.1333 8.13338 33.1999 7.19992 31C6.26661 28.7999 5.79993 26.4667 5.79993 23.9999ZM36.6999 45.1999C36.6665 45.1999 36.5333 45.1 36.3 44.8999C35.8332 43.0999 34.95 41.5499 33.6499 40.2499C32.3499 38.9167 30.7834 38.0332 28.95 37.6C28.9167 37.5667 28.8334 37.4332 28.6999 37.1999C28.6999 37.1332 28.8 37 28.9999 36.7999C30.7999 36.3667 32.3499 35.5 33.6499 34.1999C34.95 32.8665 35.8332 31.3 36.3 29.5C36.3334 29.4333 36.4666 29.3332 36.6999 29.2C36.7666 29.2 36.9 29.2999 37.0999 29.5C37.5334 31.3 38.4 32.8499 39.6999 34.15C41.0333 35.4499 42.6 36.3333 44.4 36.7999C44.4665 36.7999 44.5666 36.9333 44.7 37.1999C44.7 37.2333 44.5999 37.3665 44.4 37.6C42.5667 38.0332 40.9999 38.9167 39.6999 40.2499C38.4 41.5499 37.5334 43.0999 37.0999 44.8999C37.0999 44.9666 36.9665 45.0667 36.6999 45.1999ZM21.1999 31.9499L42.1999 10.9999C41.8999 10.6665 41.5834 10.3499 41.25 10.0499C40.95 9.74994 40.65 9.44994 40.35 9.14994L21.2499 28.1999L15.75 22.6999L13.8499 24.5999L21.1999 31.9499Z" fill="#F8844D"/>
</g>
<defs>
<clipPath id="clip0_27_18">
<rect width="54" height="54" fill="white"/>
</clipPath>
</defs>
</svg>
