<svg width="50" height="50" viewBox="0 0 50 50" fill="none" xmlns="http://www.w3.org/2000/svg">
<path d="M29.1666 31.25C29.7569 31.25 30.2694 31.0333 30.7041 30.6C31.1388 30.1666 31.3555 29.6541 31.3541 29.0625C31.3527 28.4708 31.1361 27.959 30.7041 27.527C30.2722 27.0951 29.7597 26.8777 29.1666 26.875C28.5736 26.8722 28.0618 27.0895 27.6312 27.527C27.2007 27.9645 26.9833 28.4763 26.9791 29.0625C26.975 29.6486 27.1923 30.1611 27.6312 30.6C28.0701 31.0388 28.5819 31.2555 29.1666 31.25ZM29.1666 24.5833C29.5486 24.5833 29.9048 24.4444 30.2354 24.1666C30.5659 23.8888 30.7652 23.5243 30.8333 23.0729C30.9027 22.6562 31.05 22.2743 31.275 21.927C31.5 21.5798 31.9083 21.1111 32.5 20.5208C33.5416 19.4791 34.2361 18.6368 34.5833 17.9937C34.9305 17.3507 35.1041 16.5958 35.1041 15.7291C35.1041 14.1666 34.5569 12.8902 33.4625 11.9C32.368 10.9097 30.9361 10.4152 29.1666 10.4166C28.0208 10.4166 26.9791 10.677 26.0416 11.1979C25.1041 11.7187 24.3576 12.4652 23.802 13.4375C23.5937 13.7847 23.5763 14.1493 23.75 14.5312C23.9236 14.9132 24.2187 15.1909 24.6354 15.3645C25.0173 15.5382 25.3909 15.5555 25.7562 15.4166C26.1215 15.2777 26.425 15.0347 26.6666 14.6875C26.9791 14.2361 27.3437 13.8979 27.7604 13.6729C28.177 13.4479 28.6458 13.3347 29.1666 13.3333C30 13.3333 30.677 13.568 31.1979 14.0375C31.7187 14.5069 31.9791 15.1402 31.9791 15.9375C31.9791 16.4236 31.8402 16.884 31.5625 17.3187C31.2847 17.7534 30.7986 18.3 30.1041 18.9583C29.0972 19.8263 28.4548 20.4951 28.177 20.9645C27.8993 21.434 27.7257 22.1194 27.6562 23.0208C27.6215 23.4375 27.752 23.802 28.0479 24.1145C28.3437 24.427 28.7166 24.5833 29.1666 24.5833ZM16.6666 37.5C15.5208 37.5 14.5402 37.0923 13.725 36.277C12.9097 35.4618 12.5013 34.4805 12.5 33.3333V8.33329C12.5 7.18746 12.9083 6.2069 13.725 5.39163C14.5416 4.57635 15.5222 4.16801 16.6666 4.16663H41.6666C42.8125 4.16663 43.7937 4.57496 44.6104 5.39163C45.427 6.20829 45.8347 7.18885 45.8333 8.33329V33.3333C45.8333 34.4791 45.4257 35.4604 44.6104 36.277C43.7951 37.0937 42.8139 37.5013 41.6666 37.5H16.6666ZM8.33329 45.8333C7.18746 45.8333 6.2069 45.4257 5.39163 44.6104C4.57635 43.7951 4.16801 42.8138 4.16663 41.6666V14.5833C4.16663 13.993 4.36663 13.4986 4.76663 13.1C5.16663 12.7013 5.66107 12.5013 6.24996 12.5C6.83885 12.4986 7.33399 12.6986 7.73538 13.1C8.13677 13.5013 8.33607 13.9958 8.33329 14.5833V41.6666H35.4166C36.0069 41.6666 36.502 41.8666 36.902 42.2666C37.302 42.6666 37.5014 43.1611 37.5 43.75C37.4986 44.3388 37.2986 44.834 36.9 45.2354C36.5014 45.6368 36.0069 45.8361 35.4166 45.8333H8.33329Z" fill="#F24822"/>
</svg>
