<svg width="29" height="29" viewBox="0 0 29 29" fill="none" xmlns="http://www.w3.org/2000/svg">
<path fill-rule="evenodd" clip-rule="evenodd" d="M27.15 8.91279C26.4412 7.11657 25.371 5.48509 24.0057 4.11949C22.6404 2.7539 21.0092 1.68329 19.2131 0.974038C18.789 1.45546 18.4504 2.00591 18.2119 2.60154C19.8911 3.21199 21.416 4.1831 22.6794 5.44649C23.9428 6.70988 24.9139 8.23485 25.5244 9.91404C26.12 9.67555 26.6705 9.33692 27.1519 8.91279M14.4919 1.88154L14.0625 1.87591C11.6338 1.87591 9.26055 2.60153 7.24712 3.95967C5.23369 5.31781 3.67195 7.24653 2.76226 9.4984C1.85256 11.7503 1.6364 14.2226 2.14151 16.5981C2.64661 18.9737 3.84995 21.1442 5.59714 22.8311C7.34433 24.5181 9.55569 25.6445 11.9475 26.066C14.3393 26.4875 16.8025 26.1847 19.0211 25.1966C21.2397 24.2085 23.1124 22.58 24.3991 20.5202C25.6858 18.4604 26.3277 16.0631 26.2425 13.6359C26.8875 13.4334 27.4975 13.1678 28.0725 12.839C28.1063 13.2428 28.1238 13.6509 28.125 14.0634C28.1248 16.8969 27.2687 19.6642 25.6688 22.0028C24.0689 24.3414 21.7998 26.1421 19.159 27.169C16.5181 28.1959 13.6286 28.4011 10.8692 27.7576C8.1097 27.1142 5.60897 25.6522 3.69467 23.5631C1.78037 21.4741 0.541788 18.8555 0.141233 16.0505C-0.259322 13.2454 0.196832 10.3848 1.44992 7.84347C2.70301 5.30213 4.69458 3.1986 7.16366 1.80854C9.63274 0.418474 12.4642 -0.19329 15.2869 0.0534124C14.9569 0.633318 14.6898 1.24679 14.49 1.88341" fill="#F24822"/>
</svg>
