<svg width="80" height="50" viewBox="0 0 80 50" fill="none" xmlns="http://www.w3.org/2000/svg">
<path d="M36.1328 38.9946C37.313 38.9946 38.1919 38.4139 38.1919 37.7076V11.0736C38.1919 10.3516 37.2879 9.78662 36.1328 9.78662C34.9777 9.78662 34.0736 10.3516 34.0736 11.0736V37.7076C34.0736 38.4139 34.9777 38.9946 36.1328 38.9946ZM51.5764 35.8713C52.7567 35.8713 53.6356 35.3063 53.6356 34.5843V14.1968C53.6356 13.4749 52.7316 12.9099 51.5764 12.9099C50.3962 12.9099 49.5173 13.4749 49.5173 14.1968V34.5843C49.5173 35.3063 50.3962 35.8713 51.5764 35.8713ZM28.3984 33.627C29.5787 33.627 30.4827 33.0619 30.4827 32.34V16.4412C30.4827 15.7192 29.5787 15.1542 28.3984 15.1542C27.2433 15.1542 26.3644 15.7192 26.3644 16.4412V32.34C26.3644 33.0619 27.2433 33.627 28.3984 33.627ZM43.8672 31.6494C45.0223 31.6494 45.9012 31.0687 45.9012 30.3624V18.4187C45.9012 17.6968 45.0223 17.1318 43.8672 17.1318C42.6869 17.1318 41.808 17.7125 41.808 18.4187V30.3624C41.808 31.0687 42.6869 31.6494 43.8672 31.6494ZM59.2857 28.9813C60.4659 28.9813 61.3448 28.4163 61.3448 27.6943V21.0868C61.3448 20.3649 60.4659 19.7999 59.2857 19.7999C58.1055 19.7999 57.2265 20.3649 57.2265 21.0868V27.6943C57.2265 28.4163 58.1306 28.9813 59.2857 28.9813ZM20.6892 27.7414C21.8694 27.7414 22.7483 27.1764 22.7483 26.4545V22.3267C22.7483 21.6048 21.8443 21.0241 20.6892 21.0241C19.5089 21.0241 18.63 21.6048 18.63 22.3267V26.4545C18.63 27.1764 19.5089 27.7414 20.6892 27.7414Z" fill="url(#paint0_linear_74_33)" fill-opacity="0.8"/>
<path d="M36.1328 38.9946C37.313 38.9946 38.1919 38.4139 38.1919 37.7076V11.0736C38.1919 10.3516 37.2879 9.78662 36.1328 9.78662C34.9777 9.78662 34.0736 10.3516 34.0736 11.0736V37.7076C34.0736 38.4139 34.9777 38.9946 36.1328 38.9946ZM51.5764 35.8713C52.7567 35.8713 53.6356 35.3063 53.6356 34.5843V14.1968C53.6356 13.4749 52.7316 12.9099 51.5764 12.9099C50.3962 12.9099 49.5173 13.4749 49.5173 14.1968V34.5843C49.5173 35.3063 50.3962 35.8713 51.5764 35.8713ZM28.3984 33.627C29.5787 33.627 30.4827 33.0619 30.4827 32.34V16.4412C30.4827 15.7192 29.5787 15.1542 28.3984 15.1542C27.2433 15.1542 26.3644 15.7192 26.3644 16.4412V32.34C26.3644 33.0619 27.2433 33.627 28.3984 33.627ZM43.8672 31.6494C45.0223 31.6494 45.9012 31.0687 45.9012 30.3624V18.4187C45.9012 17.6968 45.0223 17.1318 43.8672 17.1318C42.6869 17.1318 41.808 17.7125 41.808 18.4187V30.3624C41.808 31.0687 42.6869 31.6494 43.8672 31.6494ZM59.2857 28.9813C60.4659 28.9813 61.3448 28.4163 61.3448 27.6943V21.0868C61.3448 20.3649 60.4659 19.7999 59.2857 19.7999C58.1055 19.7999 57.2265 20.3649 57.2265 21.0868V27.6943C57.2265 28.4163 58.1306 28.9813 59.2857 28.9813ZM20.6892 27.7414C21.8694 27.7414 22.7483 27.1764 22.7483 26.4545V22.3267C22.7483 21.6048 21.8443 21.0241 20.6892 21.0241C19.5089 21.0241 18.63 21.6048 18.63 22.3267V26.4545C18.63 27.1764 19.5089 27.7414 20.6892 27.7414Z" fill="url(#paint1_linear_74_33)"/>
<defs>
<linearGradient id="paint0_linear_74_33" x1="18.1819" y1="6.81825" x2="74.1821" y2="37.7684" gradientUnits="userSpaceOnUse">
<stop stop-color="#FFFAFA"/>
<stop offset="1" stop-color="#FFFAFA" stop-opacity="0.4"/>
</linearGradient>
<linearGradient id="paint1_linear_74_33" x1="26.3286" y1="31.2423" x2="61.7038" y2="50.8224" gradientUnits="userSpaceOnUse">
<stop stop-color="#FF6161"/>
<stop offset="1" stop-color="#59FF06"/>
</linearGradient>
</defs>
</svg>
