<svg width="45" height="45" viewBox="0 0 45 45" fill="none" xmlns="http://www.w3.org/2000/svg">
<g clip-path="url(#clip0_30_38)">
<path fill-rule="evenodd" clip-rule="evenodd" d="M38.6133 0.469329C38.3119 0.168036 37.9032 -0.0012207 37.477 -0.0012207C37.0509 -0.0012207 36.6421 0.168036 36.3408 0.469329L21.2336 15.6086C20.9875 15.8557 20.8284 16.1761 20.7804 16.5215L19.8161 23.3679C19.7816 23.6136 19.8045 23.8639 19.8829 24.0993C19.9614 24.3347 20.0933 24.5487 20.2682 24.7247C20.4432 24.9006 20.6565 25.0336 20.8915 25.1133C21.1264 25.1929 21.3767 25.2171 21.6225 25.184L28.469 24.2518C28.8167 24.2051 29.1395 24.046 29.3883 23.7986L44.5275 8.65933C44.6772 8.51004 44.796 8.33269 44.877 8.13744C44.958 7.94218 44.9997 7.73287 44.9997 7.52147C44.9997 7.31008 44.958 7.10076 44.877 6.90551C44.796 6.71025 44.6772 6.5329 44.5275 6.38361L38.6133 0.469329ZM4.10148 5.22326C4.10148 4.5579 4.64148 4.0179 5.30683 4.0179H27.405C27.9378 4.0179 28.4488 3.80625 28.8256 3.4295C29.2023 3.05275 29.414 2.54177 29.414 2.00897C29.414 1.47617 29.2023 0.965192 28.8256 0.588445C28.4488 0.211698 27.9378 4.32404e-05 27.405 4.32404e-05H5.30683C2.42362 4.32404e-05 0.0836182 2.34004 0.0836182 5.22326V39.7768C0.0836182 42.6633 2.42362 45 5.30683 45H34.2354C37.1218 45 39.4586 42.6633 39.4586 39.7768V24.509C39.4586 23.9762 39.247 23.4652 38.8702 23.0884C38.4935 22.7117 37.9825 22.5 37.4497 22.5C36.9169 22.5 36.4059 22.7117 36.0292 23.0884C35.6524 23.4652 35.4408 23.9762 35.4408 24.509V33.7758H4.10148V5.22326ZM9.72647 9.6429C9.72647 8.53397 10.6265 7.63397 11.7354 7.63397H18.164C18.6968 7.63397 19.2078 7.84563 19.5845 8.22237C19.9612 8.59912 20.1729 9.1101 20.1729 9.6429C20.1729 10.1757 19.9612 10.6867 19.5845 11.0634C19.2078 11.4402 18.6968 11.6518 18.164 11.6518H11.7354C11.2026 11.6518 10.6916 11.4402 10.3149 11.0634C9.93813 10.6867 9.72647 10.1757 9.72647 9.6429ZM11.7354 15.6697C11.2026 15.6697 10.6916 15.8813 10.3149 16.2581C9.93813 16.6348 9.72647 17.1458 9.72647 17.6786C9.72647 18.2114 9.93813 18.7224 10.3149 19.0991C10.6916 19.4759 11.2026 19.6875 11.7354 19.6875H14.9497C15.4825 19.6875 15.9935 19.4759 16.3702 19.0991C16.747 18.7224 16.9586 18.2114 16.9586 17.6786C16.9586 17.1458 16.747 16.6348 16.3702 16.2581C15.9935 15.8813 15.4825 15.6697 14.9497 15.6697H11.7354Z" fill="#14AE5C"/>
</g>
<defs>
<clipPath id="clip0_30_38">
<rect width="45" height="45" fill="white"/>
</clipPath>
</defs>
</svg>
