<svg width="50" height="35" viewBox="0 0 50 35" fill="none" xmlns="http://www.w3.org/2000/svg">
<path d="M48.9545 5.46567C48.3784 3.31315 46.6866 1.62159 44.534 1.04539C40.6364 3.31122e-07 24.9999 0 24.9999 0C24.9999 0 9.36367 3.31122e-07 5.46591 1.04539C3.31331 1.62159 1.62167 3.31315 1.04544 5.46567C3.31137e-07 9.36323 0 17.5 0 17.5C0 17.5 3.31137e-07 25.6368 1.04544 29.5344C1.62167 31.6869 3.31331 33.3784 5.46591 33.9546C9.36367 35 24.9999 35 24.9999 35C24.9999 35 40.6364 35 44.534 33.9546C46.6866 33.3784 48.3784 31.6869 48.9545 29.5344C50 25.6368 50 17.5 50 17.5C50 17.5 49.9958 9.36323 48.9545 5.46567Z" fill="url(#paint0_linear_73_16)" fill-opacity="0.88"/>
<path d="M18.5714 24.3584L30.8189 17.4293L18.5714 10.5V24.3584Z" fill="white"/>
<defs>
<linearGradient id="paint0_linear_73_16" x1="25" y1="0" x2="25" y2="35" gradientUnits="userSpaceOnUse">
<stop stop-color="#FF45BE"/>
<stop offset="1" stop-color="#0966CF"/>
</linearGradient>
</defs>
</svg>
